<?xml version="1.0" encoding="UTF-8" standalone="no"?>
<svg
   width="1000mm"
   height="1000mm"
   viewBox="0 0 1000 1000"
   version="1.1"
   id="svg1"
   xml:space="preserve"
   xmlns="http://www.w3.org/2000/svg"
   xmlns:svg="http://www.w3.org/2000/svg"><defs
     id="defs1" /><path
     d="M 480.8896,946.03659 C 289.7674,933.37429 141.07094,823.16914 91.074628,657.12849 71.03843,590.58699 71.851755,514.66029 93.335548,446.06743 c 3.70382,-11.82551 3.70382,-11.82551 -2.38883,-26.02627 -8.18386,-19.07502 -10.28783,-24.90035 -18.904877,-52.3427 -7.890524,-25.1286 -14.07947,-57.32011 -17.59904,-91.54066 -1.519194,-14.77102 -1.522687,-65.94886 -0.0068,-80.77117 1.783732,-17.42625 4.730197,-38.66375 6.412442,-46.21905 0.439632,-1.97439 1.481237,-7.02262 2.314744,-11.21821 4.333639,-21.81471 15.610231,-59.34096 21.016071,-69.937255 5.8179,-11.404058 19.499562,-17.229215 32.822142,-13.974523 33.91931,8.286469 69.82995,20.739695 105.41916,36.557612 46.9703,20.876356 103.351,56.826396 142.87736,91.102946 1.35374,1.17393 2.22279,1.11525 7.62836,-0.5151 79.78387,-24.06341 173.91599,-24.06742 253.5886,-0.0102 6.07196,1.83339 6.07196,1.83339 11.66697,-2.8173 70.81527,-58.86349 146.60069,-98.188257 235.3441,-122.11918 26.76046,-7.216338 38.50097,-1.03438 46.95676,24.725084 29.73349,90.579296 34.07222,174.557126 13.53934,262.057546 -1.5058,6.41681 -3.10752,12.87851 -3.55939,14.3593 -0.45188,1.4808 -2.28398,7.53865 -4.07135,13.46186 -6.39989,21.20898 -13.04593,39.16424 -20.89074,56.43959 -3.42683,7.54637 -3.45112,6.18816 0.31817,17.81368 24.74035,76.30395 22.47228,160.83799 -6.39633,238.40131 -1.76765,4.74936 -3.93553,10.25062 -4.81744,12.22502 -0.88194,1.97439 -3.32114,7.42647 -5.42043,12.11566 -65.85236,147.09442 -241.01432,249.28463 -408.2963,238.20179 z m 62.37328,-59.14243 c 58.00657,-6.80317 115.69321,-26.0739 158.40124,-52.9154 139.20468,-87.48855 197.32726,-239.64335 146.30943,-383.01269 -6.63146,-18.63566 -6.52045,-20.55215 2.316,-39.98424 41.07337,-90.32348 49.79832,-182.39732 26.29861,-277.52807 -2.0403,-8.25953 -4.02005,-15.51963 -4.39948,-16.13351 -0.89507,-1.44826 -29.69689,7.54821 -44.43179,13.87864 -1.48083,0.63619 -8.32917,3.50077 -15.21856,6.36573 -12.16657,5.05949 -42.6528,19.89343 -52.44368,25.51799 -17.99037,10.33488 -33.43907,20.06717 -49.45597,31.15594 -12.88841,8.92287 -32.79691,24.73839 -47.03549,37.36548 -15.09472,13.38633 -20.97269,14.16536 -46.30009,6.13627 -74.73184,-23.69094 -160.52661,-23.66211 -235.38873,0.079 -25.03209,7.93848 -31.05178,7.1258 -46.09101,-6.2226 -54.94013,-48.76329 -119.44455,-86.03159 -189.40037,-109.42858 -20.30881,-6.79234 -18.60174,-6.58655 -19.84554,-2.39229 -6.12721,20.66151 -10.44925,42.27857 -14.25758,71.31016 -2.28463,17.41612 -2.29548,72.19384 -0.017,90.00783 6.19234,48.43187 17.87291,89.40192 37.22841,130.58004 8.64174,18.38502 8.66196,19.59131 0.72547,43.35162 -26.31717,78.7888 -21.63188,158.59919 13.69706,233.31756 7.48288,15.82586 27.79892,49.48206 33.4827,55.46857 0.66198,0.69722 2.39615,2.8831 3.85375,4.85753 57.85783,78.37291 164.94278,133.09671 273.76671,139.9035 12.77068,0.79877 56.19645,-0.27 68.20679,-1.67848 z M 494.37826,714.91342 c -4.48961,-1.79177 -8.46564,-5.75755 -15.98501,-15.94372 -4.23473,-5.73663 -11.59055,-15.68035 -16.34629,-22.09716 -15.22493,-20.54279 -16.27278,-22.04272 -17.57295,-25.15448 -4.24715,-10.1648 2.72015,-24.54141 13.27659,-27.39561 9.25335,-2.50184 83.61763,-0.55018 88.25255,2.3162 9.05455,5.59956 12.70216,17.75653 8.01525,26.71376 -2.39219,4.57176 -30.33648,47.38755 -34.92907,53.51778 -5.9162,7.89697 -16.47009,11.33219 -24.71107,8.04323 z M 403.43693,546.31943 c -2.37041,-0.92621 -6.40898,-3.44084 -8.97457,-5.58806 -14.57479,-12.19808 -26.7914,-17.333 -43.70411,-18.36979 -19.15408,-1.17423 -36.0129,4.36753 -53.11383,17.45932 -24.38551,18.66853 -52.657,-14.59332 -29.63112,-34.86149 44.75963,-39.399 114.87222,-38.42588 158.01228,2.19307 19.01878,17.90734 1.36083,48.52488 -22.58865,39.16695 z m 178.09688,0.73921 c -18.21071,-5.24109 -21.89343,-27.25579 -6.85818,-40.99718 43.21231,-39.49364 112.73623,-40.0563 156.61303,-1.26745 24.24078,21.42976 -5.03076,53.52114 -30.97074,33.95429 -30.34693,-22.89105 -66.26831,-22.31242 -94.91665,1.52896 -8.37255,6.96771 -15.84397,9.09053 -23.86746,6.78138 z"
     id="path71" /></svg>
