<?xml version="1.0" encoding="UTF-8" standalone="no"?>
<svg
   width="1000mm"
   height="1000mm"
   viewBox="0 0 1000 1000"
   version="1.1"
   id="svg1"
   xml:space="preserve"
   xmlns="http://www.w3.org/2000/svg"
   xmlns:svg="http://www.w3.org/2000/svg" ><defs
     id="defs1" /><g
     id="layer1"><path
       d="m 497.05843,917.79505 c -5.53752,-0.0854 -12.14482,-0.2617 -14.68286,-0.39128 -2.53802,-0.13037 -10.27799,-0.65455 -17.19989,-1.16565 -6.92192,-0.51059 -18.81505,-1.84469 -26.42913,-2.96406 -7.61412,-1.11921 -16.86434,-2.63753 -20.55599,-3.374 -3.69171,-0.73646 -11.43164,-2.45217 -17.19991,-3.81259 -5.76826,-1.36033 -14.26337,-3.57468 -18.87797,-4.92064 -4.61462,-1.34604 -11.22187,-3.35769 -14.68283,-4.47053 -3.46099,-1.11276 -11.31566,-3.95464 -17.45485,-6.31523 -6.1392,-2.3604 -13.87917,-5.47078 -17.19991,-6.91164 -3.32074,-1.44094 -11.42077,-5.21545 -18.00001,-8.38779 -6.57928,-3.17242 -12.11785,-5.67941 -12.30799,-5.57109 -0.18994,0.10815 -1.22558,-0.57106 -2.30104,-1.50978 -1.07546,-0.93864 -3.65439,-2.60293 -5.73097,-3.69835 -2.07656,-1.09532 -6.60727,-3.68283 -10.06826,-5.74991 -3.46094,-2.06699 -10.82333,-6.79548 -16.36087,-10.5075 -5.53755,-3.71212 -12.71115,-8.71284 -15.94138,-11.11255 -3.23023,-2.3998 -7.33396,-5.53502 -9.11942,-6.96716 -1.78544,-1.43222 -3.63719,-2.36241 -4.11497,-2.06716 -0.47783,0.29525 -0.61979,0.13438 -0.31558,-0.35782 0.30421,-0.49228 -1.05204,-2.15518 -3.01392,-3.69547 -1.96187,-1.54028 -4.28678,-3.36684 -5.16645,-4.05904 -0.87966,-0.69184 -8.19907,-7.67702 -16.26538,-15.52181 -8.06629,-7.8449 -14.99338,-14.16898 -15.39354,-14.05365 -0.4001,0.11541 -0.63314,-0.26253 -0.51781,-0.83899 0.11541,-0.57659 -0.29022,-0.94505 -0.90139,-0.81819 -0.61111,0.12627 -0.87727,-0.14794 -0.59139,-0.61079 0.28582,-0.46288 -2.51343,-4.27773 -6.22063,-8.47826 -3.70721,-4.20056 -9.1136,-10.72195 -12.0142,-14.49197 -2.90059,-3.77005 -7.46469,-9.97379 -10.14243,-13.78618 -2.81123,-4.00229 -5.25069,-6.69534 -5.77273,-6.37274 -0.53739,0.33241 -0.66105,0.16547 -0.30492,-0.41043 0.33777,-0.54636 -2.24147,-5.4532 -5.91193,-11.24668 -3.58111,-5.65237 -10.3244,-17.82826 -14.98509,-27.05751 -4.66068,-9.22925 -9.7507,-20.08406 -11.31115,-24.1218 -1.56045,-4.03784 -3.06508,-7.34145 -3.34362,-7.34145 -0.2785,0 -0.53603,-0.66089 -0.57222,-1.46828 -0.0358,-0.80754 -1.75834,-6.37659 -3.82702,-12.3756 -2.06867,-5.99894 -4.73254,-14.30525 -5.91971,-18.45841 -1.18718,-4.15314 -3.29678,-13.02581 -4.68799,-19.71693 -1.39123,-6.69121 -3.10434,-16.13018 -3.80693,-20.97549 -0.70257,-4.84543 -1.73481,-13.15173 -2.29382,-18.45847 -0.55902,-5.30683 -1.02118,-19.4653 -1.02702,-31.46323 -0.006,-11.99804 0.45762,-26.15653 1.02986,-31.46328 0.5723,-5.30683 1.8075,-14.55699 2.74495,-20.55597 0.93745,-5.99906 3.00105,-16.57072 4.58578,-23.49261 1.58473,-6.92185 3.22108,-13.71799 3.63633,-15.10236 0.41523,-1.38438 2.14558,-6.97768 3.8452,-12.42958 l 3.09021,-9.91249 -2.30583,-5.18983 c -1.2682,-2.85444 -2.98275,-6.70012 -3.81011,-8.54595 -0.82737,-1.8459 -3.57527,-8.64195 -6.10646,-15.10236 -2.53118,-6.46046 -6.31323,-17.26434 -8.40455,-24.00861 -2.0913,-6.74427 -4.947726,-16.56077 -6.347585,-21.81449 -1.399873,-5.25376 -3.324627,-13.13904 -4.277234,-17.52292 -0.952615,-4.38385 -2.819932,-14.39397 -4.149603,-22.24454 -1.329665,-7.85069 -3.090237,-20.31016 -3.912368,-27.68773 -1.136406,-10.19777 -1.502535,-20.35372 -1.527109,-42.35993 -0.02003,-17.88741 0.380949,-32.95301 1.049497,-39.43396 0.59497,-5.76827 1.620927,-14.45216 2.279836,-19.29747 0.658909,-4.84531 1.961789,-13.34044 2.895285,-18.87797 0.933504,-5.53756 2.288972,-12.71112 3.012167,-15.94142 0.723168,-3.23019 2.435355,-10.21502 3.804803,-15.52186 1.369459,-5.30679 3.26952,-12.29165 4.22235,-15.52187 0.952831,-3.23019 3.444661,-11.15897 5.537401,-17.61938 2.09273,-6.46049 4.89051,-13.545384 6.21727,-15.744217 1.32678,-2.198868 2.42666,-4.27548 2.44416,-4.614596 0.0175,-0.339595 2.03052,-2.003559 4.47336,-3.698607 2.44284,-1.694969 6.48727,-3.657595 8.98763,-4.361439 2.50036,-0.703844 5.86756,-1.351462 7.48267,-1.439182 1.61512,-0.08747 3.50291,0.07155 4.19511,0.34675 0.69215,0.27835 5.85623,1.650813 11.47566,3.049769 5.61943,1.39892 10.8728,2.291886 11.67417,1.984412 0.96924,-0.372187 1.26057,-0.241112 0.87019,0.390514 -0.38317,0.619514 1.09804,1.422903 4.26722,2.313255 2.66973,0.749969 9.9511,3.081933 16.18082,5.18204 6.22974,2.100089 11.89311,3.892913 12.58531,3.984163 0.69223,0.09149 2.76877,0.818578 4.61462,1.616348 1.84584,0.79777 8.62811,3.54358 15.07172,6.10168 6.4436,2.55815 16.77123,6.88788 22.95028,9.62157 6.17907,2.73377 17.70842,8.31412 25.62075,12.40076 7.91237,4.0867 16.78201,8.79402 19.71035,10.46065 2.9283,1.66663 5.72396,2.78314 6.21253,2.4812 0.48855,-0.30222 0.66789,-0.19245 0.39849,0.24361 -0.26948,0.43582 2.8998,2.80331 7.04262,5.26095 4.14282,2.45756 14.21582,8.88635 22.38443,14.28612 8.16865,5.39991 18.86963,12.8856 23.78001,16.63496 4.91039,3.74939 9.15795,6.58723 9.43898,6.30615 0.28113,-0.28083 0.51102,-0.10346 0.51102,0.39524 0,0.49867 2.54849,2.89302 5.66336,5.32084 3.11485,2.42784 6.04096,4.82152 6.50239,5.31949 0.46144,0.49783 2.7733,2.50345 5.13747,4.45677 l 4.29842,3.55151 8.70638,-2.40928 c 4.78853,-1.32506 13.42588,-3.56074 19.19415,-4.96809 5.76826,-1.40738 14.64086,-3.33362 19.71695,-4.28057 5.07608,-0.94689 14.89262,-2.45742 21.81454,-3.35667 6.92189,-0.89934 18.16855,-2.08568 24.99247,-2.63644 8.09135,-0.65293 21.37064,-0.83403 38.17545,-0.52011 14.39908,0.26893 30.21044,1.02857 35.83646,1.72172 5.53754,0.68239 14.2214,1.85919 19.29748,2.61513 5.07606,0.75634 13.94867,2.31632 19.71696,3.46748 5.76825,1.15104 16.15114,3.57473 23.07304,5.38591 6.92192,1.81125 13.87177,3.66852 15.44401,4.12734 2.76058,0.80555 3.10638,0.62748 10.06821,-5.17221 3.96534,-3.30352 7.77592,-6.50796 8.46811,-7.12099 0.69189,-0.61316 4.55074,-3.65852 8.57456,-6.76785 4.02376,-3.10941 8.84257,-6.71968 10.70843,-8.02302 1.89031,-1.32028 3.14448,-2.77094 2.83239,-3.27594 -0.34357,-0.55591 -0.16547,-0.66248 0.4613,-0.27505 0.56226,0.34755 1.65844,0.0796 2.43697,-0.59725 0.77859,-0.67602 7.26756,-5.1321 14.4202,-9.90305 7.15264,-4.77094 13.28221,-9.06895 13.62125,-9.55113 0.33881,-0.48196 0.62192,-0.60683 0.62908,-0.27671 0.005,0.33005 3.31648,-1.40569 7.35426,-3.85674 4.03783,-2.45097 9.22925,-5.50804 11.53652,-6.79329 2.30732,-1.28538 7.97068,-4.43425 12.58537,-6.99741 4.61457,-2.56327 14.05357,-7.38061 20.9754,-10.70513 6.92204,-3.3246 18.81509,-8.68749 26.42925,-11.91764 7.61405,-3.23013 18.18571,-7.462 23.49245,-9.40406 5.30683,-1.94212 14.1795,-5.029589 19.71701,-6.861019 5.53755,-1.831404 13.27752,-4.288578 17.19997,-5.460399 3.92236,-1.171794 12.03986,-3.402644 18.03892,-4.957389 5.99898,-1.554735 12.25454,-2.835566 13.90128,-2.846302 1.64677,-0.0078 4.87307,0.538416 7.16966,1.220631 2.29653,0.682371 5.99953,2.448111 8.22877,3.924738 2.33566,1.547041 5.2534,4.560863 6.88535,7.11204 1.55758,2.43497 4.54929,9.44711 6.6481,15.58248 2.09872,6.13538 5.26879,16.44098 7.04449,22.9015 1.77566,6.46038 4.18447,15.71057 5.35285,20.55595 1.16832,4.84531 2.88386,12.77408 3.81221,17.6194 0.92845,4.84539 2.26391,12.66221 2.96777,17.3708 0.70383,4.70857 1.94326,14.7139 2.75427,22.23397 1.10763,10.27078 1.47993,20.8756 1.49615,42.61922 0.0139,18.04601 -0.38654,32.73758 -1.06175,39.01444 -0.59568,5.53751 -1.81972,15.16532 -2.71984,21.39501 -0.90006,6.2297 -2.18574,14.34722 -2.85697,18.03893 -0.67124,3.6917 -1.57091,8.41123 -1.99925,10.48775 -0.42866,2.07662 -1.76508,7.92878 -2.97063,13.00481 -1.20559,5.07611 -2.94594,11.68334 -3.86747,14.68289 -0.92153,2.9995 -1.72962,5.64237 -1.79581,5.87308 -0.0637,0.23055 -0.2197,0.79714 -0.34037,1.25857 -0.12098,0.46126 -1.23779,4.23706 -2.48159,8.39023 -1.24369,4.15313 -4.1409,12.64819 -6.43816,18.87788 -2.2972,6.22978 -6.45562,16.51115 -9.24087,22.84742 l -5.06416,11.52067 1.46334,4.84022 c 0.8048,2.66219 2.16143,6.99265 3.0146,9.62327 0.85322,2.6306 2.85238,9.99307 4.44242,16.36089 1.59012,6.36783 3.65425,15.73104 4.58693,20.80716 0.93274,5.076 2.28632,13.75994 3.00798,19.29746 0.72135,5.53755 1.6928,17.0531 2.1579,25.59009 0.46528,8.53705 0.62671,20.80771 0.35948,27.26812 -0.26698,6.46049 -0.86265,15.71068 -1.32322,20.55605 -0.46049,4.84532 -1.39623,12.77401 -2.07951,17.6194 -0.68316,4.84531 -1.83577,11.83023 -2.56126,15.52189 -0.7253,3.6917 -2.60087,11.8389 -4.16768,18.10486 -1.56685,6.26592 -4.70606,17.02636 -6.9761,23.91205 -2.27012,6.88567 -5.49778,15.91738 -7.17261,20.07054 -1.67492,4.15314 -3.86049,9.43897 -4.85682,11.7463 -0.99637,2.30735 -4.88662,10.23604 -8.6449,17.6194 -3.75837,7.38336 -8.99122,16.96725 -11.6286,21.29754 -2.6373,4.33026 -6.73351,10.74876 -9.10249,14.26336 -2.36899,3.51453 -6.95208,9.97694 -10.18466,14.3608 -3.23252,4.38388 -8.51541,11.17999 -11.73965,15.10244 -3.22415,3.92236 -8.95974,10.52963 -12.74561,14.68281 -3.78579,4.15313 -10.41746,10.99302 -14.7369,15.19966 -4.31945,4.20679 -9.36377,9.04493 -11.20958,10.75149 -1.84592,1.70664 -6.83276,5.97187 -11.08201,9.47832 -4.24928,3.50654 -7.49463,6.7499 -7.21182,7.20741 0.28322,0.45734 0.11429,0.58535 -0.373,0.28383 -0.48829,-0.30143 -4.2275,2.03144 -8.31002,5.18451 -4.08265,3.15317 -13.08624,9.47693 -20.00811,14.05283 -6.92193,4.57598 -12.77409,8.51641 -13.00477,8.7565 -0.23056,0.24025 -1.3635,0.88809 -2.51711,1.43989 -1.15372,0.55198 -3.98533,2.15248 -6.29266,3.55682 -2.30735,1.40434 -4.85159,2.7815 -5.65398,3.06027 -0.80236,0.27904 -1.27836,0.79895 -1.05783,1.15581 0.22026,0.35712 -0.0637,0.59729 -0.63861,0.53367 -0.57184,-0.0636 -6.13681,2.40799 -12.3665,5.4917 -6.2297,3.08372 -14.34722,6.99269 -18.03893,8.68653 -3.69173,1.69383 -11.99798,5.06303 -18.45844,7.48714 -6.46041,2.42411 -14.20046,5.22129 -17.19988,6.21605 -2.99959,0.99476 -8.37614,2.7313 -11.94809,3.85878 -3.57196,1.12748 -12.63339,3.55464 -20.13653,5.39375 -7.50314,1.83902 -18.73903,4.28021 -24.9688,5.42478 -6.22972,1.14447 -17.55647,2.85931 -25.1706,3.81076 -7.6141,0.95136 -20.82868,2.1137 -29.3657,2.58306 -8.53702,0.46919 -20.0526,0.78335 -25.59011,0.69829 z m 0.83905,-53.68347 c 7.84481,0.0636 19.92669,-0.26562 26.84862,-0.73246 6.92192,-0.46692 16.92723,-1.38735 22.23403,-2.0459 5.3068,-0.65847 14.93457,-2.17784 21.39501,-3.37626 6.46049,-1.1985 17.0321,-3.49956 23.49259,-5.11366 6.46042,-1.61393 18.48984,-5.19933 26.73213,-7.96741 8.24223,-2.76807 16.54845,-5.72298 18.45836,-6.56663 1.90994,-0.84356 5.73798,-2.47771 8.50676,-3.63142 2.76876,-1.1538 7.75135,-3.34602 11.07237,-4.87184 3.32102,-1.52573 5.81112,-3.14131 5.53373,-3.59028 -0.27755,-0.44932 -0.0803,-0.55433 0.43821,-0.23381 0.51853,0.32052 5.57946,-1.94464 11.2466,-5.03349 5.66728,-3.08894 14.2684,-8.06194 19.11372,-11.05118 4.84539,-2.9893 9.64649,-6.09033 10.66908,-6.89127 1.02268,-0.80089 1.58904,-1.75565 1.25856,-2.12164 -0.33083,-0.36585 -0.13126,-0.39528 0.44222,-0.0637 0.62668,0.36029 4.1439,-1.70169 8.80964,-5.16427 4.27189,-3.17031 11.25943,-8.69554 15.52789,-12.27839 4.26858,-3.58294 7.76099,-6.8618 7.76099,-7.2865 0,-0.42466 0.30937,-0.6776 0.68792,-0.56227 0.37859,0.11542 3.09064,-2.05561 6.02746,-4.8244 2.9369,-2.76875 6.9699,-6.67394 8.96222,-8.67818 1.99228,-2.00416 3.3748,-4.04468 3.07209,-4.53443 -0.30222,-0.48993 -0.17994,-0.66091 0.27365,-0.38097 0.45333,0.27994 2.9001,-1.64363 5.43695,-4.27522 2.53693,-2.63157 6.18244,-6.62422 8.1012,-8.87248 1.91868,-2.24834 3.24768,-4.47765 2.95323,-4.95405 -0.29429,-0.47639 -0.14239,-0.62348 0.33798,-0.32604 0.48037,0.29665 1.32651,-0.005 1.87994,-0.67282 0.55353,-0.66729 0.75714,-1.61602 0.45252,-2.10908 -0.3046,-0.4931 -0.16547,-0.79293 0.30859,-0.66569 0.47479,0.12737 3.52381,-3.29682 6.77606,-7.60804 3.25224,-4.31124 5.66311,-8.27569 5.35758,-8.80973 -0.30541,-0.53446 -0.25613,-0.70065 0.10958,-0.3706 0.36587,0.33083 1.37042,-0.29577 2.23204,-1.39091 0.86171,-1.09546 1.56665,-2.37255 1.56665,-2.83821 0,-0.46524 0.28322,-0.97231 0.6291,-1.12616 0.34596,-0.15351 2.04521,-2.44482 3.77564,-5.09113 1.73048,-2.64627 3.14637,-5.14864 3.14637,-5.56068 0,-0.41199 0.56228,-1.2158 1.24925,-1.78602 0.68714,-0.57022 1.04234,-1.37158 0.78973,-1.78076 -0.25308,-0.40957 -0.12959,-0.74359 0.27283,-0.74359 0.40322,0 1.60413,-1.6047 2.66897,-3.56584 1.0648,-1.96123 2.84487,-5.24726 3.95552,-7.30232 1.11072,-2.05508 1.82403,-4.24564 1.58525,-4.86798 -0.23862,-0.62192 -0.0637,-0.9037 0.38495,-0.62509 0.45014,0.27843 1.47671,-1.11787 2.28068,-3.10283 0.80398,-1.98489 1.37501,-3.89202 1.269,-4.23814 -0.10568,-0.34597 0.11208,-0.62909 0.48515,-0.62909 0.373,0 1.29981,-1.4158 2.06046,-3.1463 0.7603,-1.73051 2.76494,-6.5444 4.45393,-10.69757 1.68899,-4.15316 4.54961,-11.89305 6.35687,-17.19985 1.80724,-5.30683 4.43992,-14.17949 5.85047,-19.71704 1.41058,-5.53746 2.89933,-11.95596 3.30831,-14.26328 0.40879,-2.30736 1.48884,-8.91464 2.39947,-14.68289 0.91051,-5.76827 2.0525,-15.56585 2.53756,-21.77249 0.48513,-6.20664 0.88199,-15.68515 0.88199,-21.06337 0,-5.37833 -0.37778,-14.64743 -0.83922,-20.59805 -0.46126,-5.95064 -1.41482,-14.59496 -2.11843,-19.20955 -0.70383,-4.61457 -1.68932,-10.65557 -2.19053,-13.42433 -0.50103,-2.76876 -2.3796,-10.88626 -4.17413,-18.03892 -1.79461,-7.15265 -5.00692,-17.91311 -7.13849,-23.91206 -2.13159,-5.99901 -4.21999,-12.60628 -4.64084,-14.68292 -0.42069,-2.07653 -0.52568,-5.28581 -0.23305,-7.13164 0.29279,-1.84581 1.7743,-6.18778 3.2927,-9.64872 1.5184,-3.46098 4.16637,-9.31315 5.88429,-13.00478 1.71794,-3.69173 5.11224,-11.80926 7.54285,-18.03894 2.43058,-6.22979 6.13544,-16.61261 8.23297,-23.0731 2.09751,-6.46042 5.15493,-17.22089 6.79413,-23.91209 1.63926,-6.69112 3.94025,-17.26277 5.11341,-23.49257 1.17307,-6.22966 2.90577,-17.36768 3.85056,-24.75104 1.15149,-8.99968 1.87134,-20.75267 2.18395,-35.65841 0.2847,-13.57667 0.0868,-27.40256 -0.50898,-35.50815 -0.53605,-7.30082 -1.70323,-18.43879 -2.59277,-24.75113 -0.88963,-6.31235 -2.38871,-15.62175 -3.33121,-20.68771 -0.94246,-5.0659 -2.5258,-12.52277 -3.51861,-16.57062 -0.99266,-4.04792 -2.2173,-7.3656 -2.72137,-7.37267 -0.65529,-0.009 -0.65291,-0.18855 0.009,-0.6291 0.64818,-0.43184 0.28948,-2.80639 -1.19749,-7.93651 -2.04941,-7.06918 -2.19614,-7.3027 -4.28082,-6.81218 -1.1872,0.27905 -8.76589,2.72329 -16.84149,5.43098 -8.07553,2.70777 -14.79949,4.92373 -14.94208,4.92446 -0.14211,7e-4 -0.0317,0.37458 0.25363,0.83067 0.28145,0.45651 0.003,0.63389 -0.62115,0.39449 -0.62348,-0.23945 -6.29705,1.63665 -12.60753,4.16891 -6.31048,2.53215 -14.03176,5.77699 -17.15839,7.2107 -3.12662,1.43369 -11.83395,5.63814 -19.34949,9.34328 -7.51568,3.70516 -17.29157,8.7906 -21.72426,11.30091 -4.4328,2.51034 -9.04404,5.22607 -10.24734,6.03482 -1.20328,0.80881 -3.21326,1.98587 -4.46651,2.61558 -1.25322,0.62991 -2.1194,1.40268 -1.92471,1.71769 0.19468,0.31495 -0.13766,0.57265 -0.73881,0.57265 -0.60129,0 -3.98252,1.80095 -7.51428,4.00221 -3.53181,2.20134 -6.42137,4.34074 -6.42137,4.75445 0,0.41357 -0.5623,0.75236 -1.24903,0.75236 -0.68716,0 -4.55694,2.32699 -8.59995,5.17101 -4.043,2.84409 -12.25921,8.85124 -18.25815,13.34926 -5.99909,4.49799 -16.19312,12.69113 -22.65364,18.20687 -6.62301,5.65463 -11.62432,10.53612 -11.4666,11.19209 0.15351,0.6402 0.005,0.89146 -0.32447,0.5591 -0.33241,-0.33245 -1.59101,0.0796 -2.79679,0.90982 -1.20564,0.83284 -3.87812,2.17253 -5.93865,2.97723 -2.06049,0.80467 -6.02493,1.49323 -8.80968,1.53016 -3.61609,0.0478 -7.82101,-0.79738 -14.712,-2.95765 -5.30684,-1.66362 -11.72533,-3.63775 -14.26338,-4.38691 -2.53798,-0.74918 -6.69112,-1.92235 -9.22916,-2.60698 -2.53807,-0.68478 -8.95657,-2.16143 -14.2634,-3.28161 -5.30677,-1.1201 -12.85797,-2.59475 -16.78039,-3.27698 -3.92245,-0.68235 -11.85114,-1.81137 -17.6194,-2.50947 -5.76826,-0.6983 -18.32907,-1.66372 -27.91288,-2.14592 -12.09482,-0.60841 -22.57849,-0.60919 -34.27181,-0.003 -9.26565,0.48037 -19.54719,1.22375 -22.84785,1.65176 -3.30061,0.42789 -7.88896,1.00448 -10.19622,1.28091 -2.30733,0.27672 -7.21561,1.03345 -10.90729,1.68215 -3.6917,0.64896 -8.59996,1.55998 -10.90725,2.02519 -2.30733,0.46524 -6.937,1.43169 -10.28822,2.14778 -3.35122,0.71576 -8.0707,1.83207 -10.48776,2.47992 -2.41704,0.64818 -7.79267,2.17609 -11.94584,3.39619 -4.15311,1.22005 -10.38286,3.18102 -13.84382,4.35777 -4.52733,1.53931 -7.99002,2.12976 -12.34302,2.10461 -4.81041,-0.0317 -6.94849,-0.48592 -10.4327,-2.23596 -2.41028,-1.21062 -7.61638,-5.03693 -11.56906,-8.50284 -3.9527,-3.46602 -8.13062,-7.15951 -9.28426,-8.20789 -1.15366,-1.04834 -5.11802,-4.34124 -8.80972,-7.31749 -3.69166,-2.97629 -8.86692,-7.0033 -11.50052,-8.94901 -2.63359,-1.94562 -4.9739,-3.53761 -5.20064,-3.53761 -0.22666,0 -1.34256,-0.86215 -2.47956,-1.91584 -1.137,-1.05371 -7.66933,-5.71294 -14.5163,-10.35376 -6.84701,-4.64074 -17.16855,-11.26857 -22.9368,-14.72847 -5.76937,-3.4598 -12.18788,-7.24926 -14.26446,-8.42097 -2.07656,-1.17165 -8.21442,-4.46289 -13.63966,-7.31369 -5.60619,-2.946 -10.31438,-4.92438 -10.90727,-4.58334 -0.57372,0.33003 -0.76691,0.29515 -0.42922,-0.0796 0.33769,-0.373 -1.73888,-1.87101 -4.6146,-3.3285 -2.87574,-1.45739 -6.55006,-3.15441 -8.16517,-3.77108 -1.61511,-0.61637 -5.52771,-2.38464 -8.69467,-3.92871 -3.16694,-1.54409 -6.09302,-2.6005 -6.5024,-2.34751 -0.40934,0.25308 -0.74433,0.0637 -0.74433,-0.42867 0,-0.48911 -0.51933,-0.88852 -1.15414,-0.88852 -0.63472,0 -3.29736,-0.94784 -5.91688,-2.10633 -2.61952,-1.15848 -9.17939,-3.73571 -14.57749,-5.72725 -5.39811,-1.99143 -14.27529,-5.04669 -19.72707,-6.78935 -5.45178,-1.74263 -10.0513,-3.02954 -10.22116,-2.85967 -0.16987,0.1702 -1.13233,3.32344 -2.13881,7.00788 -1.00649,3.68451 -2.7472,10.66353 -3.86826,15.50884 -1.12106,4.84531 -2.7843,12.64547 -3.6961,17.33365 -0.91179,4.68815 -2.3938,13.74951 -3.29336,20.13644 -0.89954,6.38694 -2.07509,18.03106 -2.61231,25.87593 -0.58884,8.59915 -0.78537,22.59309 -0.49476,35.23881 0.26509,11.5366 1.0715,26.0726 1.792,32.30229 0.72047,6.22978 1.72255,13.78094 2.22679,16.78042 0.50422,2.99953 1.62945,9.04047 2.50048,13.42432 0.87103,4.38391 2.10602,10.42485 2.74444,13.42438 0.63838,2.99948 2.18032,9.22917 3.42646,13.84374 1.24614,4.61468 3.15071,11.2219 4.23237,14.6829 1.08166,3.46092 4.05577,12.0044 6.60913,18.98542 2.55335,6.98102 7.94759,20.00682 11.98718,28.9462 6.82641,15.10648 7.344,16.63831 7.33466,21.70699 -0.007,3.53756 -0.65064,7.1487 -1.83317,10.27805 -1.00273,2.65337 -1.54526,4.83015 -1.20564,4.83719 0.33959,0.005 0.19661,0.2904 -0.31772,0.6291 -0.51441,0.33882 -2.46824,5.52472 -4.3419,11.52373 -1.87365,5.99895 -4.19035,14.18447 -5.14822,18.18993 -0.95787,4.00547 -2.51028,11.17911 -3.44981,15.94141 -0.93953,4.76224 -2.27187,13.37818 -2.96073,19.14644 -0.6889,5.76826 -1.48339,17.47259 -1.76559,26.00962 -0.31288,9.46572 -0.11666,20.5959 0.50295,28.52668 0.55878,7.15261 1.56737,16.59163 2.24125,20.97549 0.67386,4.38388 1.46062,8.53705 1.74832,9.22925 0.28766,0.69192 0.45872,1.82484 0.38007,2.51707 -0.0788,0.6919 1.1996,6.73312 2.84058,13.42424 1.64098,6.69121 4.3227,16.31901 5.9594,21.39501 1.63668,5.07612 4.62071,13.38896 6.63116,18.47303 2.01044,5.08411 5.94258,13.95679 8.73808,19.71701 2.79549,5.76022 5.93196,11.98341 6.96995,13.82919 1.03798,1.84595 3.38153,5.90467 5.20789,9.01947 1.82636,3.11489 3.61976,5.66348 3.98534,5.66348 0.3656,0 0.66472,0.505 0.66472,1.12176 0,0.61715 2.70837,5.05328 6.01861,9.85841 3.31023,4.80524 6.24877,8.92553 6.53008,9.15627 0.28131,0.23055 1.94704,2.40172 3.70159,4.8244 1.75456,2.42263 3.53549,4.40486 3.95766,4.40486 0.42215,0 0.76755,0.43102 0.76755,0.95826 0,0.52726 1.77336,3.07568 3.9408,5.66341 2.16745,2.58777 5.63887,6.4754 7.71427,8.63917 2.07541,2.16369 4.13596,3.71 4.57902,3.43619 0.44307,-0.27421 0.54662,-0.0796 0.23003,0.43345 -0.33061,0.53524 2.52532,3.96992 6.71022,8.07088 4.00719,3.92682 7.70026,6.90366 8.20684,6.6151 0.50659,-0.28859 0.66162,-0.23639 0.34444,0.1168 -0.31715,0.35231 0.81554,2.05428 2.51707,3.78134 1.7015,1.72717 6.58631,6.01808 10.85505,9.53547 4.26875,3.51739 9.93214,8.00489 12.58531,9.97232 2.65315,1.96743 6.5229,4.79982 8.59952,6.29419 2.07655,1.49445 8.11751,5.49847 13.42432,8.89783 5.3068,3.3993 12.48038,7.65797 15.94137,9.46353 3.46093,1.80556 6.49075,3.54514 6.73287,3.86558 0.24223,0.32043 5.97706,3.22863 12.7443,6.46249 6.76722,3.23395 17.51832,7.92854 23.89134,10.43221 6.373,2.50394 15.74045,5.88717 20.8165,7.51843 5.07608,1.63127 11.30581,3.54297 13.84385,4.24823 2.53804,0.70544 5.74726,1.55214 7.13167,1.88199 1.38438,0.33001 2.89463,0.71894 3.35609,0.86465 0.46143,0.14544 3.29315,0.84609 6.29263,1.55632 2.9995,0.71023 7.34144,1.64443 9.64874,2.07605 2.30733,0.43181 8.34824,1.51694 13.42433,2.412 5.07608,0.89507 13.19361,2.10612 18.03895,2.69139 4.84534,0.58535 12.96284,1.32521 18.03889,1.6446 5.07609,0.31982 15.64773,0.63311 23.49259,0.69672 z m 4.66009,-161.82184 c -3.02453,-0.0139 -6.72622,-0.56628 -8.22593,-1.2181 -1.49976,-0.65215 -2.72685,-1.0326 -2.72685,-0.84619 0,0.18605 -0.87586,-0.49227 -1.94635,-1.50884 -1.07048,-1.01625 -3.56702,-4.01477 -5.54788,-6.66331 -1.98078,-2.64859 -3.9323,-4.61126 -4.33664,-4.3613 -0.40433,0.24974 -0.54503,-0.0397 -0.31264,-0.64656 0.23249,-0.60602 -0.70419,-2.33492 -2.08137,-3.8427 -1.37717,-1.50785 -2.57113,-3.0141 -2.65326,-3.34723 -0.082,-0.33324 -2.67478,-4.00372 -5.76148,-8.15688 -3.08668,-4.15317 -8.44683,-11.41714 -11.91143,-16.14214 -3.46461,-4.72498 -6.54698,-8.4062 -6.84965,-8.18041 -0.30269,0.22582 -0.37769,0.17521 -0.16658,-0.11291 0.2108,-0.28801 -0.35534,-1.97179 -1.25853,-3.74213 -1.04632,-2.05094 -1.6421,-4.90852 -1.6421,-7.87598 0,-2.98502 0.63402,-6.00599 1.7658,-8.41374 0.9712,-2.06615 3.11472,-4.94092 4.76333,-6.38846 1.64866,-1.44762 4.23059,-3.14709 5.73758,-3.77675 2.173,-0.90796 10.58657,-1.15214 40.65579,-1.17989 37.04515,-0.0317 37.99508,0.005 41.36955,1.74705 1.89959,0.98013 4.34066,2.59659 5.42463,3.59212 1.08395,0.99548 2.87739,3.59095 3.98536,5.76754 1.34066,2.63376 2.01451,5.37905 2.01451,8.20741 0,2.33747 -0.5408,5.5443 -1.20183,7.1263 -0.66097,1.58195 -4.11935,7.32762 -7.68521,12.76814 -3.56587,5.44043 -9.30518,14.23364 -12.75407,19.54046 -3.44886,5.30675 -6.99261,10.69507 -7.87504,11.97399 -0.88246,1.27895 -1.39222,2.66867 -1.13281,3.08832 0.2592,0.41995 0.0297,1.03631 -0.51074,1.37026 -0.66362,0.41037 -0.76423,0.22498 -0.31017,-0.57106 0.43184,-0.75711 0.38668,-0.87834 -0.12626,-0.33959 -0.43926,0.46129 -1.86561,2.29464 -3.16967,4.07357 -1.30409,1.779 -4.09444,4.32753 -6.20089,5.66344 -3.24345,2.05689 -4.67183,2.42377 -9.32897,2.39601 z M 417.03629,545.35952 c -2.13393,-0.0397 -5.01255,-0.47002 -6.3969,-0.96341 -1.3844,-0.49311 -4.02731,-1.98158 -5.87316,-3.30689 -1.84587,-1.32528 -5.42616,-4.0959 -7.95622,-6.15677 -2.53009,-2.06104 -7.24956,-5.03649 -10.48773,-6.6124 -3.2382,-1.57582 -8.71932,-3.73792 -12.18029,-4.8046 -5.12628,-1.58002 -8.23663,-1.94331 -16.78041,-1.96024 -7.44927,-0.014 -12.31082,0.42945 -16.78038,1.53446 -3.461,0.85543 -9.69071,3.14723 -13.84385,5.09295 -4.15315,1.9457 -10.19409,5.54647 -13.42431,8.00155 -3.23024,2.45511 -7.08811,4.97249 -8.57299,5.59417 -1.48495,0.62192 -4.69422,1.12832 -7.1317,1.12568 -2.43748,-0.003 -5.79958,-0.38493 -7.4713,-0.84891 -1.67172,-0.46444 -4.75493,-2.35433 -6.85162,-4.19989 -2.09672,-1.84562 -4.6767,-5.14152 -5.73336,-7.32423 -1.44016,-2.97506 -1.90836,-5.37052 -1.86989,-9.56779 0.0411,-4.51837 0.49099,-6.34955 2.32938,-9.48655 1.253,-2.13802 5.26503,-6.41778 8.91563,-9.51042 3.94645,-3.34338 10.55568,-7.69249 16.3018,-10.72729 5.31539,-2.80725 9.3812,-5.41635 9.03519,-5.79785 -0.34605,-0.38173 -0.19746,-0.44694 0.3301,-0.14545 0.52763,0.30141 3.92568,-0.42628 7.5512,-1.61727 3.62552,-1.19095 10.36742,-2.9248 14.98205,-3.85292 6.12704,-1.23231 11.89808,-1.70306 21.39501,-1.7451 9.39553,-0.0397 14.98408,0.35469 20.13647,1.42915 3.92243,0.81779 9.9634,2.42527 13.42433,3.57217 3.46097,1.14699 9.45996,3.56178 13.33116,5.36632 3.87117,1.80454 10.23619,5.40872 14.14451,8.00917 3.90829,2.60049 9.48135,6.95019 12.38452,9.66599 2.90317,2.71572 6.07148,6.62479 7.04073,8.68678 1.25092,2.66108 1.75996,5.39502 1.75437,9.42148 -0.005,4.749 -0.41427,6.38112 -2.50392,10.02474 -1.37284,2.39359 -3.75494,5.31231 -5.29362,6.48594 -1.53864,1.17354 -4.42373,2.70752 -6.41126,3.40873 -1.98757,0.70147 -5.35964,1.24522 -7.49357,1.20882 z m 166.46459,-0.23444 c -2.78165,0.0962 -6.51858,-0.25224 -8.30432,-0.77386 -1.7858,-0.52172 -4.87118,-2.5273 -6.85646,-4.45679 -1.98526,-1.92942 -4.39417,-5.04597 -5.35308,-6.92568 -1.22925,-2.40953 -1.74355,-5.00595 -1.74355,-8.80219 0,-2.96152 0.58207,-6.77762 1.29347,-8.48029 0.71142,-1.70262 2.7828,-4.71138 4.60314,-6.68623 1.82034,-1.9748 3.03168,-3.89767 2.69189,-4.27298 -0.33973,-0.37538 -0.20052,-0.44458 0.30975,-0.15351 0.51013,0.29098 2.39793,-0.7293 4.19513,-2.2667 1.7972,-1.53733 5.61214,-4.3099 8.47762,-6.16125 2.86548,-1.8512 4.94201,-3.69679 4.61457,-4.10118 -0.32764,-0.40403 -0.28709,-0.48994 0.089,-0.19079 0.37616,0.29983 4.52972,-1.25595 9.22925,-3.4569 4.69953,-2.20092 11.18745,-4.79525 14.41774,-5.76514 3.23022,-0.96986 8.70484,-2.32316 12.16577,-3.00726 3.4609,-0.68398 9.8794,-1.49401 14.26337,-1.7997 4.4899,-0.31256 11.82274,-0.14072 16.79157,0.39524 4.85151,0.52334 13.1369,2.08356 18.41191,3.46744 5.27502,1.38399 13.42266,4.34667 18.10582,6.58386 4.68323,2.23702 11.50017,6.07723 15.14896,8.53368 3.64866,2.45644 8.77775,6.60366 11.3978,9.21598 3.78829,3.77701 5.05225,5.74163 6.17202,9.59369 1.20133,4.13225 1.26056,5.59463 0.40325,9.95124 -0.55274,2.80891 -1.72025,6.01677 -2.59478,7.12844 -0.87444,1.11178 -1.37826,2.36398 -1.11953,2.78264 0.25835,0.4183 0.151,0.65768 -0.23945,0.53045 -0.39049,-0.12737 -2.51705,1.249 -4.72643,3.05738 -3.75478,3.07339 -4.44278,3.31262 -10.5426,3.66571 -5.52834,0.31973 -7.15567,0.0859 -10.64803,-1.53086 -2.26731,-1.04974 -4.49988,-1.81831 -4.96131,-1.70793 -0.46127,0.11068 -0.56786,-0.0717 -0.23555,-0.40242 0.33163,-0.33164 -0.98961,-1.868 -2.93661,-3.41368 -1.94695,-1.54566 -5.65537,-3.94112 -8.241,-5.32318 -2.58554,-1.38202 -4.94526,-2.26856 -5.24383,-1.96999 -0.29905,0.29815 -0.54323,0.14879 -0.54323,-0.33403 0,-0.48195 -2.17091,-1.65161 -4.82435,-2.59892 -2.65337,-0.94725 -6.90094,-2.21513 -9.43899,-2.81759 -2.59547,-0.61637 -9.20341,-1.07358 -15.10236,-1.04565 -7.26176,0.0317 -12.03622,0.4923 -15.52185,1.48914 -2.76879,0.79129 -5.97809,1.84812 -7.13166,2.34765 -1.15365,0.49945 -3.98534,1.84106 -6.29266,2.9811 -2.30736,1.14009 -5.60437,3.02895 -7.32677,4.19746 -1.72238,1.16854 -2.89107,2.5138 -2.59714,2.98938 0.32213,0.52094 0.11931,0.60841 -0.50976,0.21859 -0.65216,-0.40325 -2.19733,0.46683 -4.11501,2.31575 -1.68879,1.62862 -4.75907,3.83043 -6.82281,4.89279 -2.48899,1.28131 -5.45483,1.9904 -8.80967,2.10629 z"
       id="path1" /></g></svg>
